<?xml version="1.0" encoding="UTF-8" standalone="no"?>
<!-- Created with Inkscape (http://www.inkscape.org/) -->

<svg
   xmlns:dc="http://purl.org/dc/elements/1.1/"
   xmlns:cc="http://creativecommons.org/ns#"
   xmlns:rdf="http://www.w3.org/1999/02/22-rdf-syntax-ns#"
   xmlns:svg="http://www.w3.org/2000/svg"
   xmlns="http://www.w3.org/2000/svg"
   xmlns:sodipodi="http://sodipodi.sourceforge.net/DTD/sodipodi-0.dtd"
   xmlns:inkscape="http://www.inkscape.org/namespaces/inkscape"
   width="200"
   height="200"
   viewBox="0 0 52.916665 52.916668"
   version="1.1"
   id="svg8"
   inkscape:version="0.92.4 (5da689c313, 2019-01-14)"
   sodipodi:docname="logo.svg">
  <defs
     id="defs2" />
  <sodipodi:namedview
     id="base"
     pagecolor="#ffffff"
     bordercolor="#666666"
     borderopacity="1.0"
     inkscape:pageopacity="0.0"
     inkscape:pageshadow="2"
     inkscape:zoom="2.8"
     inkscape:cx="18.823723"
     inkscape:cy="137.74299"
     inkscape:document-units="mm"
     inkscape:current-layer="layer1"
     showgrid="true"
     units="px"
     inkscape:window-width="933"
     inkscape:window-height="905"
     inkscape:window-x="1639"
     inkscape:window-y="140"
     inkscape:window-maximized="0">
    <inkscape:grid
       type="xygrid"
       id="grid3713" />
  </sodipodi:namedview>
  <metadata
     id="metadata5">
    <rdf:RDF>
      <cc:Work
         rdf:about="">
        <dc:format>image/svg+xml</dc:format>
        <dc:type
           rdf:resource="http://purl.org/dc/dcmitype/StillImage" />
        <dc:title />
      </cc:Work>
    </rdf:RDF>
  </metadata>
  <g
     inkscape:label="Ebene 1"
     inkscape:groupmode="layer"
     id="layer1"
     transform="translate(0,-244.08332)">
    <path
       style="stroke-width:0.99999994;fill:#0467c6;fill-opacity:1"
       d="M 100 0 A 99.999995 99.999995 0 0 0 0 100 A 99.999995 99.999995 0 0 0 100 200 A 99.999995 99.999995 0 0 0 200 100 A 99.999995 99.999995 0 0 0 100 0 z M 100 20 A 79.999998 79.999998 0 0 1 180 100 A 79.999998 79.999998 0 0 1 100 180 A 79.999998 79.999998 0 0 1 20 100 A 79.999998 79.999998 0 0 1 100 20 z "
       transform="matrix(0.26458333,0,0,0.26458333,0,244.08332)"
       id="path3715" />
    <circle
       style="fill:#0467c6;fill-opacity:1;stroke-width:0.22645541"
       id="path3722"
       cx="25.999998"
       cy="270.99997"
       r="15" />
  </g>
</svg>
